<svg width="16" height="14" viewBox="0 0 16 14" fill="none" xmlns="http://www.w3.org/2000/svg">
<path d="M6 1.75C6 0.784 6.784 0 7.75 0H14.25C15.216 0 16 0.784 16 1.75V12.25C16 12.7141 15.8156 13.1592 15.4874 13.4874C15.1592 13.8156 14.7141 14 14.25 14H7.75C7.28587 14 6.84075 13.8156 6.51256 13.4874C6.18437 13.1592 6 12.7141 6 12.25V1.75ZM7.75 1.5C7.6837 1.5 7.62011 1.52634 7.57322 1.57322C7.52634 1.62011 7.5 1.6837 7.5 1.75V12.25C7.5 12.388 7.612 12.5 7.75 12.5H14.25C14.3163 12.5 14.3799 12.4737 14.4268 12.4268C14.4737 12.3799 14.5 12.3163 14.5 12.25V1.75C14.5 1.6837 14.4737 1.62011 14.4268 1.57322C14.3799 1.52634 14.3163 1.5 14.25 1.5H7.75ZM1.75 1.5C1.6837 1.5 1.62011 1.52634 1.57322 1.57322C1.52634 1.62011 1.5 1.6837 1.5 1.75V8.25C1.5 8.388 1.612 8.5 1.75 8.5H4V10H1.75C1.28587 10 0.840752 9.81563 0.512563 9.48744C0.184374 9.15925 0 8.71413 0 8.25L0 1.75C0 0.784 0.784 0 1.75 0H4V1.5H1.75ZM4 14H2V12.5H4V14Z" fill="white" fill-opacity="0.698"/>
</svg>
