<svg width="24" height="25" viewBox="0 0 24 25" fill="none" xmlns="http://www.w3.org/2000/svg">
<g opacity="0.7">
<rect y="0.59375" width="24" height="24" rx="2" fill="url(#paint0_linear_102_53)"/>
<g clip-path="url(#clip0_102_53)">
<path d="M17.7929 9.75878C17.6633 9.11423 17.3403 8.52449 16.8671 8.06812C16.3938 7.61175 15.7927 7.31042 15.1439 7.20428C14.6564 7.12657 14.1576 7.16263 13.6863 7.30965C13.2151 7.45667 12.7842 7.71066 12.4274 8.05178C12.3113 8.15979 12.1585 8.21984 11.9999 8.21984C11.8413 8.21984 11.6886 8.15979 11.5724 8.05178C10.98 7.47876 10.1895 7.15608 9.36532 7.15082C8.54113 7.14556 7.74661 7.45812 7.14692 8.02353C6.54722 8.58894 6.18849 9.36371 6.14528 10.1868C6.10207 11.0099 6.37771 11.8179 6.9149 12.443L11.3519 17.7305C11.4313 17.825 11.5304 17.901 11.6423 17.9531C11.7542 18.0052 11.8761 18.0322 11.9995 18.0322C12.1229 18.0322 12.2449 18.0052 12.3567 17.9531C12.4686 17.901 12.5677 17.825 12.6472 17.7305L17.0842 12.443C17.3979 12.0788 17.6248 11.6481 17.7475 11.1833C17.8703 10.7185 17.8858 10.2319 17.7929 9.76028V9.75878Z" fill="white"/>
</g>
</g>
<defs>
<linearGradient id="paint0_linear_102_53" x1="0" y1="0.59375" x2="24" y2="24.5938" gradientUnits="userSpaceOnUse">
<stop stop-color="#450AF5"/>
<stop offset="1" stop-color="#C4EFD9"/>
</linearGradient>
<clipPath id="clip0_102_53">
<rect width="12" height="12" fill="white" transform="translate(6 6.59375)"/>
</clipPath>
</defs>
</svg>
